<svg xmlns="http://www.w3.org/2000/svg" enable-background="new 0 0 128 128" viewBox="0 0 128 128"><path fill-rule="evenodd" d="M72.658 52.912c7.188-8.265 15.318-12.457 25.597-11.951 16.723.822 28.493 12.464 29.339 30.639.743 16.008.216 32.072.33 48.108.028 3.848-1.774 5.286-5.467 5.193-4.947-.125-9.912-.239-14.847.049-4.896.286-6.758-1.679-6.674-6.542.193-10.887.074-21.782.053-32.673-.007-2.968.03-5.95-.202-8.904-.715-9.143-6.08-14.661-14.034-14.599-8.175.063-14.789 6.633-14.933 15.374-.211 12.868-.084 25.741-.111 38.612-.019 8.618-.026 8.618-8.535 8.674-18.4.118-18.393.118-18.4-18.286-.007-18.811.13-37.627-.144-56.434-.079-5.446 1.742-7.627 7.172-7.118 3.14.295 6.331.033 9.501.046C70.761 43.142 70.761 43.147 72.658 52.912zM1.921 83.654c0-11.282.207-22.569-.091-33.842-.137-5.272 1.876-7.097 6.958-6.784 4.93.302 9.896.17 14.84.065 3.714-.077 5.393 1.435 5.379 5.27-.088 23.751-.1 47.499-.054 71.25.007 3.802-1.637 5.369-5.376 5.29-5.341-.114-10.692-.156-16.029.021-4.097.137-5.636-1.614-5.592-5.646.13-11.874.046-23.751.046-35.625C1.977 83.654 1.949 83.654 1.921 83.654zM15.182 31.319C6.494 31.282.059 25.299 0 17.203-.06 9.245 6.582 3.029 15.147 3.023c9.32-.005 15.632 5.739 15.595 14.19C30.702 25.819 24.592 31.356 15.182 31.319z" clip-rule="evenodd"/></svg>